<svg id="svg" version="1.1" xmlns="http://www.w3.org/2000/svg" xmlns:xlink="http://www.w3.org/1999/xlink" width="400" height="400" viewBox="0, 0, 400,400"><g id="svgg"><path id="path0" d="M187.362 149.262 C 187.191 149.537,187.251 149.615,187.511 149.455 C 187.749 149.308,188.052 149.360,188.183 149.573 C 188.319 149.793,188.034 149.884,187.518 149.784 C 186.744 149.635,100.910 149.496,99.800 149.642 C 99.580 149.671,99.249 149.668,99.066 149.636 C 98.882 149.604,98.636 149.940,98.520 150.384 C 98.404 150.828,98.150 151.092,97.955 150.972 C 97.760 150.851,97.597 151.078,97.594 151.476 C 97.589 152.090,97.529 152.109,97.200 151.600 C 96.892 151.124,96.810 151.207,96.800 152.000 C 96.790 152.793,96.708 152.876,96.400 152.400 C 96.076 151.898,96.011 151.925,96.006 152.567 C 96.003 152.988,95.889 153.222,95.752 153.086 C 95.449 152.782,94.400 153.779,94.400 154.371 C 94.400 154.607,94.220 154.800,94.000 154.800 C 93.780 154.800,93.621 154.935,93.647 155.100 C 93.769 155.871,93.546 156.335,92.943 156.566 C 92.368 156.787,92.356 156.731,92.843 156.110 C 93.150 155.720,92.740 155.941,91.934 156.601 C 90.966 157.393,90.534 158.038,90.661 158.500 C 90.767 158.885,90.662 159.200,90.427 159.200 C 90.192 159.200,89.997 158.975,89.994 158.700 C 89.991 158.425,89.751 158.650,89.461 159.200 C 89.172 159.750,88.724 160.155,88.467 160.100 C 88.210 160.045,88.000 160.276,88.000 160.613 C 88.000 160.949,87.685 161.344,87.300 161.490 C 86.452 161.811,85.600 162.615,85.600 163.093 C 85.600 163.285,84.610 164.366,83.400 165.495 C 82.190 166.623,81.197 167.784,81.194 168.073 C 81.189 168.460,81.085 168.440,80.800 168.000 C 80.471 167.491,80.411 167.510,80.406 168.124 C 80.403 168.522,80.220 168.736,80.000 168.600 C 79.780 168.464,79.600 168.644,79.600 169.000 C 79.600 169.356,79.455 169.557,79.277 169.448 C 78.960 169.252,77.448 170.986,77.350 171.659 C 77.323 171.846,77.278 172.161,77.250 172.357 C 77.223 172.554,76.905 172.828,76.543 172.966 C 75.968 173.187,75.955 173.131,76.443 172.509 C 76.949 171.864,76.936 171.850,76.300 172.349 C 75.915 172.651,75.600 173.236,75.600 173.649 C 75.600 174.062,75.409 174.400,75.176 174.400 C 74.943 174.400,74.863 174.222,74.997 174.005 C 75.139 173.775,74.972 173.713,74.598 173.856 C 74.244 173.992,74.047 174.344,74.160 174.639 C 74.273 174.933,74.165 175.298,73.921 175.449 C 73.652 175.615,73.589 175.541,73.762 175.262 C 73.919 175.008,73.857 174.800,73.624 174.800 C 73.391 174.800,73.200 175.160,73.200 175.600 C 73.200 176.316,72.784 176.587,71.900 176.447 C 71.735 176.421,71.597 176.805,71.594 177.300 C 71.590 177.808,71.460 178.013,71.294 177.770 C 71.110 177.500,70.400 177.947,69.390 178.970 C 67.690 180.692,67.600 180.836,67.600 181.824 C 67.600 182.167,67.415 182.333,67.189 182.193 C 66.963 182.053,66.267 182.486,65.642 183.156 C 65.017 183.825,64.392 184.258,64.253 184.119 C 64.114 183.980,64.000 184.177,64.000 184.557 C 64.000 184.937,63.820 185.136,63.600 185.000 C 63.380 184.864,63.200 185.063,63.200 185.443 C 63.200 185.823,63.091 186.024,62.958 185.891 C 62.661 185.595,60.800 187.399,60.800 187.982 C 60.800 188.212,60.575 188.403,60.300 188.406 C 59.967 188.410,60.000 188.542,60.400 188.800 C 60.885 189.114,60.828 189.189,60.100 189.194 C 59.586 189.197,59.200 189.447,59.200 189.776 C 59.200 190.093,58.992 190.481,58.738 190.638 C 58.454 190.814,58.385 190.748,58.559 190.466 C 58.742 190.171,58.622 190.093,58.221 190.247 C 57.469 190.536,57.441 190.856,58.100 191.620 C 58.520 192.107,58.507 192.120,58.020 191.700 C 57.190 190.985,56.800 191.081,56.800 192.000 C 56.800 192.716,56.384 192.987,55.500 192.847 C 55.335 192.821,55.245 193.025,55.300 193.300 C 55.355 193.575,55.175 193.755,54.900 193.700 C 54.625 193.645,54.400 193.876,54.400 194.213 C 54.400 194.549,54.085 194.946,53.701 195.093 C 52.647 195.498,51.319 196.958,51.504 197.511 C 51.593 197.780,51.337 198.126,50.934 198.281 C 49.996 198.641,48.400 200.231,48.400 200.805 C 48.400 201.048,48.220 201.136,48.000 201.000 C 47.780 200.864,47.597 201.078,47.594 201.476 C 47.589 202.090,47.529 202.109,47.200 201.600 C 46.892 201.124,46.810 201.207,46.800 202.000 C 46.790 202.793,46.708 202.876,46.400 202.400 C 46.076 201.898,46.011 201.925,46.006 202.567 C 46.003 202.988,45.889 203.222,45.752 203.086 C 45.449 202.782,44.400 203.779,44.400 204.371 C 44.400 204.607,44.220 204.800,44.000 204.800 C 43.780 204.800,43.621 204.935,43.647 205.100 C 43.769 205.871,43.546 206.335,42.943 206.566 C 42.368 206.787,42.356 206.731,42.843 206.110 C 43.150 205.720,42.740 205.941,41.934 206.601 C 40.966 207.393,40.534 208.038,40.661 208.500 C 40.767 208.885,40.662 209.200,40.427 209.200 C 40.192 209.200,39.997 208.975,39.994 208.700 C 39.991 208.425,39.751 208.650,39.461 209.200 C 39.172 209.750,38.724 210.155,38.467 210.100 C 38.210 210.045,38.000 210.276,38.000 210.613 C 38.000 210.949,37.685 211.344,37.300 211.490 C 36.452 211.811,35.600 212.615,35.600 213.093 C 35.600 213.285,34.610 214.366,33.400 215.495 C 32.190 216.623,31.197 217.784,31.194 218.073 C 31.189 218.460,31.085 218.440,30.800 218.000 C 30.471 217.491,30.411 217.510,30.406 218.124 C 30.403 218.522,30.220 218.736,30.000 218.600 C 29.780 218.464,29.600 218.663,29.600 219.043 C 29.600 219.423,29.489 219.622,29.352 219.486 C 29.099 219.233,28.664 219.604,27.600 220.978 C 27.185 221.515,27.163 221.656,27.530 221.435 C 27.967 221.172,27.969 221.261,27.538 221.950 C 27.252 222.409,26.763 222.882,26.452 223.001 C 25.968 223.187,25.967 223.117,26.443 222.509 C 26.949 221.864,26.936 221.850,26.300 222.349 C 25.915 222.651,25.600 223.236,25.600 223.649 C 25.600 224.062,25.409 224.400,25.176 224.400 C 24.943 224.400,24.863 224.222,24.997 224.005 C 25.139 223.775,24.972 223.713,24.598 223.856 C 24.244 223.992,24.047 224.344,24.160 224.639 C 24.273 224.933,24.165 225.298,23.921 225.449 C 23.652 225.615,23.589 225.541,23.762 225.262 C 23.919 225.008,23.857 224.800,23.624 224.800 C 23.391 224.800,23.200 225.160,23.200 225.600 C 23.200 226.316,22.784 226.587,21.900 226.447 C 21.735 226.421,21.597 226.805,21.594 227.300 C 21.590 227.808,21.460 228.013,21.294 227.770 C 21.035 227.390,17.582 230.401,17.595 230.995 C 17.622 232.172,17.541 232.411,17.189 232.193 C 16.963 232.053,16.267 232.486,15.642 233.156 C 15.017 233.825,14.392 234.258,14.253 234.119 C 14.114 233.980,14.000 234.177,14.000 234.557 C 14.000 234.937,13.820 235.136,13.600 235.000 C 13.380 234.864,13.200 235.063,13.200 235.443 C 13.200 235.823,13.091 236.024,12.958 235.891 C 12.661 235.595,10.800 237.399,10.800 237.982 C 10.800 238.212,10.575 238.403,10.300 238.406 C 9.967 238.410,10.000 238.542,10.400 238.800 C 10.885 239.114,10.828 239.189,10.100 239.194 C 9.586 239.197,9.200 239.447,9.200 239.776 C 9.200 240.093,8.992 240.481,8.738 240.638 C 8.454 240.814,8.385 240.748,8.559 240.466 C 8.742 240.171,8.622 240.093,8.221 240.247 C 7.499 240.524,7.443 240.851,8.000 241.520 C 8.291 241.869,8.269 241.891,7.920 241.600 C 7.182 240.985,6.800 241.121,6.800 242.000 C 6.800 242.716,6.384 242.987,5.500 242.847 C 5.335 242.821,5.245 243.025,5.300 243.300 C 5.355 243.575,5.175 243.755,4.900 243.700 C 4.625 243.645,4.400 243.876,4.400 244.213 C 4.400 244.549,4.085 244.946,3.701 245.093 C 2.625 245.506,1.321 246.963,1.513 247.538 C 1.607 247.821,1.305 248.152,0.842 248.273 C 0.239 248.431,0.000 248.811,0.000 249.614 C 0.000 251.061,0.387 252.055,0.842 251.774 C 1.039 251.652,1.200 251.833,1.200 252.176 C 1.200 252.727,1.389 252.841,2.214 252.786 C 2.596 252.760,3.600 253.930,3.600 254.400 C 3.600 254.651,3.870 255.127,4.200 255.457 C 4.530 255.787,4.800 255.941,4.800 255.800 C 4.800 255.659,5.070 255.813,5.400 256.143 C 5.730 256.473,6.000 256.936,6.000 257.171 C 6.000 257.407,6.161 257.600,6.358 257.600 C 6.554 257.600,7.293 258.140,8.000 258.800 C 8.707 259.460,9.182 260.000,9.057 260.000 C 8.931 260.000,9.227 260.417,9.714 260.926 C 10.201 261.435,10.735 261.784,10.900 261.702 C 11.065 261.620,11.200 261.833,11.200 262.176 C 11.200 262.519,11.425 262.755,11.700 262.700 C 11.975 262.645,12.151 262.838,12.090 263.130 C 12.030 263.421,12.164 263.546,12.388 263.407 C 12.613 263.268,12.989 263.570,13.224 264.077 C 13.459 264.585,14.224 265.270,14.925 265.600 C 15.795 266.010,16.160 266.435,16.073 266.940 C 15.997 267.384,16.117 267.575,16.373 267.417 C 16.608 267.271,16.800 267.433,16.800 267.776 C 16.800 268.119,17.064 268.400,17.386 268.400 C 17.708 268.400,18.165 268.760,18.400 269.200 C 18.635 269.640,19.081 270.000,19.390 270.000 C 19.700 270.000,20.081 270.208,20.238 270.462 C 20.414 270.746,20.348 270.815,20.066 270.641 C 19.771 270.458,19.693 270.577,19.846 270.977 C 19.977 271.317,20.245 271.496,20.442 271.374 C 20.639 271.252,20.800 271.365,20.800 271.624 C 20.800 272.244,23.279 274.398,23.696 274.141 C 23.874 274.031,23.972 274.089,23.913 274.270 C 23.737 274.811,26.078 277.199,26.518 276.927 C 26.741 276.789,26.810 276.861,26.670 277.087 C 26.531 277.312,26.773 277.908,27.208 278.410 C 27.644 278.912,28.000 279.175,28.000 278.995 C 28.000 278.814,28.705 279.372,29.566 280.233 C 30.427 281.095,31.869 282.408,32.771 283.151 C 33.673 283.894,34.518 284.929,34.649 285.451 C 34.780 285.973,35.047 286.423,35.243 286.450 C 35.440 286.478,35.825 286.527,36.100 286.560 C 36.375 286.592,36.575 286.928,36.545 287.305 C 36.515 287.683,36.650 287.893,36.845 287.772 C 37.040 287.651,37.200 287.747,37.200 287.983 C 37.200 288.220,37.830 289.026,38.600 289.774 C 39.370 290.521,40.000 291.039,40.000 290.924 C 40.000 290.659,42.015 292.846,42.773 293.934 C 43.088 294.387,43.493 294.666,43.673 294.555 C 43.853 294.444,44.000 294.663,44.000 295.043 C 44.000 295.423,44.111 295.622,44.248 295.486 C 44.551 295.182,45.600 296.179,45.600 296.771 C 45.600 297.007,45.881 297.200,46.224 297.200 C 46.567 297.200,46.736 297.380,46.600 297.600 C 46.464 297.820,46.650 298.000,47.014 298.000 C 47.377 298.000,47.769 298.360,47.884 298.800 C 48.075 299.529,48.487 299.776,49.300 299.647 C 49.465 299.621,49.555 299.825,49.500 300.100 C 49.445 300.375,49.625 300.555,49.900 300.500 C 50.175 300.445,50.379 300.535,50.353 300.700 C 50.224 301.513,50.471 301.925,51.200 302.116 C 51.640 302.231,52.000 302.623,52.000 302.986 C 52.000 303.350,52.180 303.536,52.400 303.400 C 52.620 303.264,52.800 303.433,52.800 303.776 C 52.800 304.119,52.993 304.400,53.229 304.400 C 53.464 304.400,53.927 304.670,54.257 305.000 C 54.587 305.330,54.727 305.600,54.567 305.600 C 54.263 305.600,55.004 306.266,57.372 308.117 C 58.157 308.731,58.800 309.491,58.800 309.804 C 58.800 310.173,59.036 310.284,59.469 310.118 C 59.977 309.923,60.077 310.023,59.882 310.531 C 59.711 310.976,59.829 311.200,60.236 311.200 C 60.596 311.200,60.730 311.390,60.562 311.662 C 60.399 311.925,60.451 312.016,60.682 311.873 C 60.905 311.735,61.564 312.157,62.147 312.811 C 62.729 313.465,63.108 314.000,62.987 314.000 C 62.867 314.000,63.001 314.251,63.284 314.558 C 63.568 314.865,63.935 315.034,64.100 314.934 C 64.265 314.835,64.400 315.033,64.400 315.376 C 64.400 315.947,64.880 316.185,65.730 316.037 C 65.911 316.006,65.960 316.141,65.839 316.337 C 65.541 316.820,66.979 318.080,67.397 317.701 C 67.579 317.535,67.610 317.607,67.466 317.859 C 67.193 318.336,68.839 320.256,70.212 321.063 C 70.645 321.317,70.957 321.716,70.905 321.948 C 70.852 322.181,71.079 322.268,71.409 322.141 C 71.857 321.969,71.941 322.099,71.741 322.655 C 71.593 323.065,71.605 323.281,71.768 323.135 C 72.062 322.871,79.200 329.649,79.200 330.193 C 79.200 330.730,81.680 332.798,82.051 332.569 C 82.254 332.443,82.370 332.579,82.310 332.870 C 82.249 333.162,82.425 333.355,82.700 333.300 C 82.975 333.245,83.155 333.425,83.100 333.700 C 83.045 333.975,83.238 334.151,83.530 334.090 C 83.821 334.030,83.957 334.146,83.831 334.349 C 83.610 334.707,85.630 337.157,86.279 337.320 C 86.456 337.364,86.561 337.517,86.513 337.660 C 86.466 337.803,86.864 338.030,87.399 338.164 C 88.053 338.328,88.296 338.605,88.141 339.009 C 87.971 339.454,88.095 339.538,88.621 339.337 C 89.110 339.149,89.240 339.211,89.040 339.535 C 88.766 339.979,89.626 341.200,90.214 341.200 C 90.511 341.200,92.586 342.879,92.686 343.200 C 93.033 344.314,93.343 344.759,93.642 344.574 C 93.839 344.452,94.000 344.663,94.000 345.043 C 94.000 345.423,94.111 345.622,94.248 345.486 C 94.551 345.182,95.600 346.179,95.600 346.771 C 95.600 347.007,95.881 347.200,96.224 347.200 C 96.567 347.200,96.749 347.360,96.628 347.555 C 96.508 347.750,96.767 348.003,97.204 348.117 C 97.642 348.231,98.000 348.631,98.000 349.005 C 98.000 349.467,98.208 349.606,98.645 349.438 C 99.065 349.277,99.222 349.366,99.095 349.695 C 98.940 350.100,107.827 350.200,143.784 350.200 C 190.469 350.200,190.473 350.200,188.239 348.706 C 187.951 348.513,187.998 348.410,188.376 348.406 C 188.788 348.402,188.732 348.239,188.181 347.835 C 187.756 347.525,187.274 347.354,187.109 347.456 C 186.944 347.558,186.928 347.331,187.074 346.951 C 187.282 346.410,187.185 346.320,186.625 346.535 C 186.084 346.743,185.970 346.656,186.153 346.178 C 186.345 345.679,186.209 345.604,185.497 345.819 C 184.760 346.042,184.690 345.995,185.107 345.558 C 185.521 345.124,185.383 344.914,184.351 344.413 C 183.657 344.076,183.099 343.620,183.111 343.400 C 183.150 342.671,182.281 341.960,181.648 342.203 C 181.305 342.335,181.157 342.310,181.319 342.147 C 181.677 341.789,179.244 339.200,178.548 339.200 C 178.276 339.200,177.940 338.840,177.800 338.400 C 177.660 337.959,177.198 337.413,176.773 337.186 C 176.348 336.958,176.000 336.585,176.000 336.357 C 176.000 335.905,175.010 334.800,174.605 334.800 C 174.466 334.800,174.488 335.025,174.653 335.300 C 174.857 335.640,174.737 335.624,174.277 335.251 C 173.544 334.657,173.349 334.198,174.000 334.600 C 174.220 334.736,174.400 334.697,174.400 334.513 C 174.400 333.968,171.974 332.003,171.259 331.968 C 170.844 331.949,170.785 331.862,171.100 331.735 C 171.375 331.624,171.600 331.374,171.600 331.179 C 171.600 330.984,171.323 330.932,170.984 331.062 C 170.591 331.212,170.410 331.098,170.484 330.749 C 170.556 330.408,170.298 330.233,169.800 330.288 C 169.360 330.337,169.225 330.277,169.500 330.155 C 170.243 329.826,170.106 329.074,169.355 329.362 C 168.880 329.544,168.776 329.439,168.960 328.960 C 169.139 328.494,169.038 328.376,168.605 328.543 C 168.231 328.686,168.000 328.546,168.000 328.178 C 168.000 327.849,167.550 327.409,167.000 327.200 C 166.450 326.991,166.000 326.715,166.000 326.586 C 166.000 326.458,166.225 326.471,166.500 326.617 C 166.775 326.762,166.370 326.320,165.600 325.636 C 164.830 324.952,163.651 323.853,162.980 323.196 C 162.308 322.538,161.543 322.000,161.280 322.000 C 161.016 322.000,160.800 321.796,160.800 321.546 C 160.800 320.914,158.914 319.226,158.561 319.542 C 158.402 319.684,158.406 319.567,158.570 319.283 C 158.872 318.760,155.177 314.800,154.387 314.800 C 154.174 314.800,154.045 314.575,154.100 314.300 C 154.155 314.025,153.981 313.843,153.714 313.895 C 153.414 313.954,153.326 313.737,153.484 313.326 C 153.681 312.812,153.577 312.723,153.025 312.935 C 152.478 313.145,152.369 313.058,152.560 312.560 C 152.744 312.080,152.640 311.976,152.160 312.160 C 151.690 312.340,151.576 312.239,151.747 311.793 C 151.920 311.344,151.645 311.109,150.734 310.927 C 149.842 310.748,149.360 310.348,149.051 309.530 C 148.804 308.875,148.403 308.467,148.114 308.578 C 147.837 308.684,147.651 308.643,147.702 308.486 C 147.850 308.028,145.521 305.600,144.934 305.600 C 144.640 305.600,144.400 305.340,144.400 305.023 C 144.400 304.705,143.877 304.136,143.237 303.758 C 142.598 303.381,142.161 302.845,142.268 302.568 C 142.382 302.269,142.082 302.010,141.531 301.932 C 140.904 301.843,140.638 301.572,140.717 301.104 C 140.787 300.681,140.357 300.119,139.618 299.669 C 138.950 299.263,138.522 298.811,138.668 298.665 C 138.814 298.519,138.633 298.400,138.267 298.400 C 137.900 298.400,137.645 298.175,137.700 297.900 C 137.755 297.625,137.581 297.443,137.314 297.495 C 137.014 297.554,136.926 297.337,137.084 296.926 C 137.281 296.412,137.177 296.323,136.625 296.535 C 136.084 296.743,135.970 296.656,136.153 296.178 C 136.345 295.679,136.209 295.604,135.497 295.819 C 134.760 296.042,134.690 295.995,135.107 295.558 C 135.521 295.124,135.375 294.914,134.307 294.409 C 133.588 294.070,132.997 293.614,132.994 293.396 C 132.981 292.577,132.296 291.954,131.672 292.194 C 131.316 292.330,131.157 292.310,131.319 292.147 C 131.677 291.789,129.244 289.200,128.548 289.200 C 128.276 289.200,127.940 288.840,127.800 288.400 C 127.660 287.959,127.198 287.413,126.773 287.186 C 126.348 286.958,126.000 286.585,126.000 286.357 C 126.000 285.905,125.010 284.800,124.605 284.800 C 124.466 284.800,124.464 284.980,124.600 285.200 C 125.002 285.851,124.543 285.656,123.949 284.923 C 123.576 284.463,123.560 284.343,123.900 284.547 C 124.175 284.712,124.400 284.697,124.400 284.513 C 124.400 283.968,121.974 282.003,121.259 281.968 C 120.844 281.949,120.785 281.862,121.100 281.735 C 121.375 281.624,121.600 281.374,121.600 281.179 C 121.600 280.984,121.323 280.932,120.984 281.062 C 120.591 281.212,120.410 281.098,120.484 280.749 C 120.556 280.408,120.298 280.233,119.800 280.288 C 119.360 280.337,119.225 280.277,119.500 280.155 C 120.243 279.826,120.106 279.074,119.355 279.362 C 118.880 279.544,118.776 279.439,118.960 278.960 C 119.139 278.494,119.038 278.376,118.605 278.543 C 118.231 278.686,118.000 278.546,118.000 278.178 C 118.000 277.849,117.550 277.409,117.000 277.200 C 116.450 276.991,116.000 276.715,116.000 276.586 C 116.000 276.458,116.225 276.471,116.500 276.617 C 116.775 276.762,116.370 276.320,115.600 275.636 C 114.830 274.952,113.651 273.853,112.980 273.196 C 112.308 272.538,111.543 272.000,111.280 272.000 C 111.016 272.000,110.800 271.796,110.800 271.546 C 110.800 270.914,108.914 269.226,108.561 269.542 C 108.402 269.684,108.406 269.567,108.570 269.283 C 108.872 268.760,105.177 264.800,104.387 264.800 C 104.174 264.800,104.045 264.575,104.100 264.300 C 104.155 264.025,103.981 263.843,103.714 263.895 C 103.414 263.954,103.326 263.737,103.484 263.326 C 103.681 262.812,103.577 262.723,103.025 262.935 C 102.478 263.145,102.369 263.058,102.560 262.560 C 102.744 262.080,102.640 261.976,102.160 262.160 C 101.690 262.340,101.576 262.239,101.747 261.793 C 101.920 261.344,101.645 261.109,100.734 260.927 C 99.842 260.748,99.360 260.348,99.051 259.530 C 98.804 258.875,98.403 258.467,98.114 258.578 C 97.837 258.684,97.651 258.643,97.702 258.486 C 97.850 258.028,95.521 255.600,94.934 255.600 C 94.640 255.600,94.400 255.340,94.400 255.023 C 94.400 254.705,93.877 254.136,93.237 253.758 C 92.598 253.381,92.161 252.845,92.268 252.568 C 92.382 252.269,92.082 252.010,91.531 251.932 C 90.911 251.844,90.600 251.533,90.600 251.000 C 90.600 250.437,90.363 250.226,89.800 250.288 C 89.360 250.337,89.225 250.277,89.500 250.155 C 89.775 250.033,90.013 249.543,90.028 249.067 C 90.052 248.324,90.096 248.301,90.335 248.906 C 90.592 249.555,90.663 249.543,91.207 248.757 C 91.533 248.287,92.025 247.667,92.300 247.380 C 92.575 247.092,92.800 246.664,92.800 246.429 C 92.800 246.193,93.025 246.045,93.300 246.100 C 93.575 246.155,93.755 245.975,93.700 245.700 C 93.645 245.425,93.825 245.245,94.100 245.300 C 94.375 245.355,94.555 245.175,94.500 244.900 C 94.445 244.625,94.625 244.445,94.900 244.500 C 95.175 244.555,95.351 244.362,95.290 244.070 C 95.230 243.779,95.333 243.635,95.519 243.750 C 95.962 244.024,97.214 242.557,96.867 242.170 C 96.720 242.006,96.826 242.002,97.103 242.161 C 97.687 242.498,98.962 241.385,98.622 240.835 C 98.496 240.631,98.838 240.114,99.383 239.685 C 99.927 239.257,100.259 238.792,100.120 238.653 C 99.981 238.514,100.177 238.400,100.557 238.400 C 100.982 238.400,101.136 238.220,100.958 237.932 C 100.760 237.611,100.892 237.550,101.379 237.737 C 101.922 237.945,102.031 237.857,101.840 237.360 C 101.664 236.901,101.762 236.777,102.175 236.935 C 102.588 237.093,102.686 236.969,102.510 236.510 C 102.319 236.013,102.428 235.925,102.975 236.135 C 103.514 236.342,103.630 236.256,103.449 235.784 C 103.298 235.390,103.372 235.259,103.648 235.430 C 103.890 235.579,104.491 235.232,104.984 234.658 C 105.477 234.084,105.998 233.731,106.140 233.874 C 106.283 234.017,106.414 233.698,106.432 233.167 C 106.449 232.635,106.553 232.423,106.664 232.696 C 106.818 233.077,106.996 233.061,107.432 232.625 C 108.115 231.942,108.183 231.440,107.538 231.838 C 107.243 232.021,107.185 231.947,107.378 231.635 C 107.544 231.367,107.774 231.240,107.888 231.354 C 108.264 231.731,109.257 230.416,108.960 229.935 C 108.767 229.623,108.880 229.545,109.297 229.705 C 109.998 229.974,111.376 228.710,110.901 228.234 C 110.735 228.069,110.870 227.993,111.200 228.067 C 111.532 228.140,111.751 227.964,111.690 227.670 C 111.630 227.379,111.766 227.255,111.993 227.396 C 112.220 227.536,112.511 227.376,112.640 227.041 C 112.769 226.705,113.225 226.319,113.654 226.183 C 114.204 226.008,114.362 225.709,114.190 225.168 C 113.953 224.423,114.296 224.214,115.500 224.370 C 115.775 224.406,116.000 224.147,116.000 223.794 C 116.000 223.441,116.163 223.254,116.363 223.377 C 116.562 223.500,116.631 223.241,116.516 222.801 C 116.368 222.235,116.503 222.000,116.977 222.000 C 117.387 222.000,117.535 221.818,117.358 221.532 C 117.165 221.220,117.284 221.147,117.714 221.312 C 118.189 221.494,118.294 221.389,118.112 220.914 C 117.946 220.482,118.020 220.365,118.335 220.560 C 118.906 220.913,120.151 219.768,119.805 219.208 C 119.669 218.988,119.793 218.892,120.079 218.993 C 120.774 219.240,122.792 217.426,122.832 216.519 C 122.850 216.091,122.946 216.005,123.067 216.305 C 123.200 216.636,123.671 216.361,124.436 215.505 C 126.305 213.414,126.400 213.270,126.406 212.517 C 126.411 211.908,126.471 211.890,126.800 212.400 C 127.149 212.940,127.372 212.690,127.247 211.900 C 127.221 211.735,127.425 211.645,127.700 211.700 C 127.975 211.755,128.155 211.575,128.100 211.300 C 128.045 211.025,128.138 210.845,128.308 210.900 C 128.882 211.087,130.990 209.165,130.529 208.876 C 130.228 208.687,130.288 208.414,130.720 208.013 C 131.280 207.493,131.322 207.504,131.089 208.113 C 130.944 208.491,130.918 208.800,131.031 208.800 C 131.461 208.800,133.274 206.740,133.045 206.512 C 132.913 206.380,133.164 206.020,133.603 205.713 C 134.041 205.406,134.400 204.900,134.400 204.590 C 134.400 204.226,134.638 204.117,135.069 204.282 C 135.571 204.474,135.676 204.376,135.490 203.890 C 135.314 203.431,135.412 203.307,135.825 203.465 C 136.253 203.629,136.336 203.499,136.135 202.975 C 135.925 202.428,136.013 202.319,136.510 202.510 C 136.969 202.686,137.093 202.588,136.935 202.175 C 136.791 201.799,136.905 201.660,137.255 201.784 C 138.029 202.059,139.349 200.964,138.974 200.359 C 138.761 200.014,138.870 199.941,139.334 200.119 C 139.851 200.318,140.006 200.132,140.028 199.287 C 140.050 198.455,140.122 198.366,140.335 198.906 C 140.592 199.555,140.663 199.543,141.207 198.757 C 141.533 198.287,142.025 197.667,142.300 197.380 C 142.575 197.092,142.800 196.664,142.800 196.429 C 142.800 196.193,143.025 196.045,143.300 196.100 C 143.575 196.155,143.755 195.975,143.700 195.700 C 143.645 195.425,143.825 195.245,144.100 195.300 C 144.375 195.355,144.555 195.175,144.500 194.900 C 144.445 194.625,144.625 194.445,144.900 194.500 C 145.175 194.555,145.351 194.362,145.290 194.070 C 145.230 193.779,145.333 193.635,145.519 193.750 C 145.962 194.024,147.214 192.557,146.867 192.170 C 146.720 192.006,146.826 192.002,147.103 192.161 C 147.687 192.498,148.962 191.385,148.622 190.835 C 148.496 190.631,148.838 190.114,149.383 189.685 C 149.927 189.257,150.259 188.792,150.120 188.653 C 149.981 188.514,150.177 188.400,150.557 188.400 C 150.982 188.400,151.136 188.220,150.958 187.932 C 150.760 187.611,150.892 187.550,151.379 187.737 C 151.922 187.945,152.031 187.857,151.840 187.360 C 151.664 186.901,151.762 186.777,152.175 186.935 C 152.588 187.093,152.686 186.969,152.510 186.510 C 152.319 186.013,152.428 185.925,152.975 186.135 C 153.514 186.342,153.630 186.256,153.449 185.784 C 153.298 185.390,153.372 185.259,153.648 185.430 C 153.890 185.579,154.491 185.232,154.984 184.658 C 155.477 184.084,155.998 183.731,156.140 183.874 C 156.283 184.017,156.414 183.698,156.432 183.167 C 156.449 182.635,156.553 182.423,156.664 182.696 C 156.818 183.077,156.996 183.061,157.432 182.625 C 158.115 181.942,158.183 181.440,157.538 181.838 C 157.243 182.021,157.185 181.947,157.378 181.635 C 157.544 181.367,157.774 181.240,157.888 181.354 C 158.264 181.731,159.257 180.416,158.960 179.935 C 158.767 179.623,158.880 179.545,159.297 179.705 C 159.998 179.974,161.376 178.710,160.901 178.234 C 160.735 178.069,160.870 177.993,161.200 178.067 C 161.532 178.140,161.751 177.964,161.690 177.670 C 161.630 177.379,161.766 177.255,161.993 177.396 C 162.220 177.536,162.511 177.376,162.640 177.041 C 162.769 176.705,163.225 176.319,163.654 176.183 C 164.204 176.008,164.362 175.709,164.190 175.168 C 163.953 174.423,164.296 174.214,165.500 174.370 C 165.775 174.406,166.000 174.147,166.000 173.794 C 166.000 173.441,166.163 173.254,166.363 173.377 C 166.562 173.500,166.631 173.241,166.516 172.801 C 166.368 172.235,166.503 172.000,166.977 172.000 C 167.387 172.000,167.535 171.818,167.358 171.532 C 167.165 171.220,167.284 171.147,167.714 171.312 C 168.189 171.494,168.294 171.389,168.112 170.914 C 167.946 170.482,168.020 170.365,168.335 170.560 C 168.906 170.913,170.151 169.768,169.805 169.208 C 169.669 168.988,169.793 168.892,170.079 168.993 C 170.774 169.240,172.792 167.426,172.832 166.519 C 172.850 166.091,172.946 166.005,173.067 166.305 C 173.200 166.636,173.671 166.361,174.436 165.505 C 176.305 163.414,176.400 163.270,176.406 162.517 C 176.411 161.908,176.471 161.890,176.800 162.400 C 177.149 162.940,177.372 162.690,177.247 161.900 C 177.221 161.735,177.425 161.645,177.700 161.700 C 177.975 161.755,178.155 161.575,178.100 161.300 C 178.045 161.025,178.138 160.845,178.308 160.900 C 178.882 161.087,180.990 159.165,180.529 158.876 C 180.228 158.687,180.288 158.414,180.720 158.013 C 181.280 157.493,181.322 157.504,181.089 158.113 C 180.944 158.491,180.918 158.800,181.031 158.800 C 181.461 158.800,183.274 156.740,183.045 156.512 C 182.913 156.380,183.164 156.020,183.603 155.713 C 184.041 155.406,184.400 154.900,184.400 154.590 C 184.400 154.226,184.638 154.117,185.069 154.282 C 185.571 154.474,185.676 154.376,185.490 153.890 C 185.314 153.431,185.412 153.307,185.825 153.465 C 186.253 153.629,186.336 153.499,186.135 152.975 C 185.925 152.428,186.013 152.319,186.510 152.510 C 186.989 152.694,187.094 152.590,186.912 152.115 C 186.719 151.611,186.853 151.521,187.533 151.698 C 188.010 151.823,188.300 151.762,188.177 151.563 C 188.054 151.363,188.233 151.200,188.576 151.200 C 189.226 151.200,189.373 150.516,188.957 149.433 C 188.674 148.694,187.773 148.597,187.362 149.262 " stroke="none" fill="#54ac5c" fill-rule="evenodd"></path><path id="path1" d="M120.000 50.800 C 120.000 51.622,120.197 52.000,120.626 52.000 C 120.970 52.000,122.120 52.891,123.180 53.979 C 124.240 55.068,125.219 55.848,125.354 55.713 C 125.489 55.577,125.600 55.705,125.600 55.997 C 125.600 56.731,133.183 64.058,133.646 63.772 C 133.852 63.645,133.970 63.751,133.910 64.007 C 133.849 64.264,134.140 64.683,134.557 64.937 C 134.973 65.192,139.510 69.585,144.640 74.700 C 149.770 79.815,154.123 84.000,154.313 84.000 C 154.503 84.000,158.931 88.230,164.153 93.400 C 169.376 98.570,173.828 102.800,174.048 102.800 C 174.268 102.800,174.357 102.945,174.248 103.123 C 174.138 103.301,174.520 103.796,175.096 104.223 C 175.672 104.650,176.543 105.394,177.030 105.876 C 177.517 106.357,178.024 106.642,178.158 106.509 C 178.291 106.376,178.400 106.567,178.400 106.933 C 178.400 107.300,178.558 107.600,178.751 107.600 C 178.944 107.600,180.478 108.950,182.161 110.600 L 185.220 113.600 206.597 113.600 L 227.973 113.600 231.012 110.700 C 232.683 109.105,235.704 106.135,237.725 104.099 C 246.395 95.368,250.577 91.216,253.536 88.400 C 255.271 86.750,256.614 85.265,256.521 85.100 C 256.429 84.935,256.633 84.800,256.976 84.800 C 257.319 84.800,257.600 84.635,257.600 84.434 C 257.600 84.233,259.667 82.028,262.193 79.534 C 267.397 74.398,273.109 68.702,279.078 62.700 C 285.399 56.344,289.989 52.000,290.385 52.000 C 290.862 52.000,291.320 50.518,291.002 50.004 C 290.836 49.734,262.367 49.600,205.376 49.600 L 120.000 49.600 120.000 50.800 M309.600 50.844 C 309.050 51.515,307.112 53.534,305.293 55.332 C 303.474 57.129,299.564 61.030,296.604 64.000 C 293.644 66.970,289.980 70.637,288.461 72.149 C 284.904 75.689,275.689 84.904,272.149 88.461 C 270.637 89.980,266.970 93.645,264.000 96.604 C 257.199 103.383,253.383 107.199,246.604 114.000 C 243.645 116.970,239.980 120.637,238.461 122.149 C 234.904 125.689,225.689 134.904,222.149 138.461 C 220.637 139.980,216.970 143.645,214.000 146.604 C 207.199 153.383,203.383 157.199,196.604 164.000 C 193.645 166.970,189.980 170.637,188.461 172.149 C 184.904 175.689,175.689 184.904,172.149 188.461 C 170.637 189.980,166.970 193.645,164.000 196.604 C 157.199 203.383,153.383 207.199,146.604 214.000 C 143.645 216.970,139.980 220.637,138.461 222.149 C 134.032 226.557,125.245 235.350,122.122 238.498 C 116.732 243.932,112.201 248.190,111.907 248.097 C 111.495 247.967,111.066 249.874,111.344 250.599 C 111.605 251.278,113.021 251.412,113.403 250.795 C 113.569 250.526,128.381 250.395,157.636 250.405 L 201.619 250.420 204.309 247.644 C 205.789 246.117,207.738 244.088,208.641 243.134 C 209.543 242.180,211.202 240.590,212.327 239.600 C 213.453 238.610,214.380 237.545,214.387 237.233 C 214.394 236.922,214.508 236.774,214.639 236.906 C 214.771 237.037,217.021 234.952,219.639 232.272 C 222.258 229.593,225.124 226.680,226.009 225.800 C 226.894 224.920,230.762 221.050,234.605 217.200 C 238.448 213.350,242.089 209.703,242.696 209.095 C 243.303 208.488,246.770 205.044,250.400 201.442 C 254.030 197.841,257.738 194.108,258.641 193.147 C 259.543 192.186,261.202 190.590,262.327 189.600 C 263.453 188.610,264.380 187.545,264.387 187.233 C 264.394 186.922,264.508 186.774,264.639 186.906 C 264.771 187.037,267.021 184.952,269.639 182.272 C 272.258 179.593,275.124 176.680,276.009 175.800 C 276.894 174.920,280.762 171.050,284.605 167.200 C 288.448 163.350,292.089 159.703,292.696 159.095 C 293.303 158.488,296.770 155.044,300.400 151.442 C 304.030 147.841,307.738 144.108,308.641 143.147 C 309.543 142.186,311.202 140.590,312.327 139.600 C 313.453 138.610,314.380 137.545,314.387 137.233 C 314.394 136.922,314.508 136.774,314.639 136.906 C 314.771 137.037,317.021 134.952,319.639 132.272 C 322.258 129.593,325.124 126.680,326.009 125.800 C 326.894 124.920,330.762 121.050,334.605 117.200 C 338.448 113.350,342.089 109.703,342.696 109.095 C 343.303 108.488,346.770 105.044,350.400 101.442 C 354.030 97.841,357.738 94.108,358.641 93.147 C 359.543 92.186,361.202 90.590,362.327 89.600 C 363.453 88.610,364.380 87.545,364.387 87.233 C 364.394 86.922,364.508 86.774,364.639 86.906 C 364.771 87.037,367.021 84.952,369.639 82.272 C 374.806 76.984,374.604 77.187,384.104 67.742 C 387.677 64.190,391.350 60.500,392.266 59.542 C 393.182 58.584,395.297 56.501,396.966 54.913 C 399.443 52.556,400.000 51.803,400.000 50.813 L 400.000 49.600 355.300 49.612 L 310.600 49.624 309.600 50.844 M65.375 182.900 L 64.200 184.200 65.500 183.025 C 66.215 182.379,66.800 181.794,66.800 181.725 C 66.800 181.416,66.470 181.688,65.375 182.900 M282.518 188.930 C 277.059 194.362,274.847 196.400,274.411 196.400 C 274.159 196.400,274.064 196.580,274.200 196.800 C 274.336 197.020,274.156 197.200,273.800 197.200 C 273.444 197.200,273.264 197.380,273.400 197.600 C 273.536 197.820,273.356 198.000,273.000 198.000 C 272.644 198.000,272.464 198.180,272.600 198.400 C 272.736 198.620,272.659 198.800,272.428 198.800 C 272.198 198.800,268.418 202.355,264.029 206.700 C 255.062 215.578,253.778 216.800,253.423 216.800 C 252.958 216.800,250.452 219.518,250.693 219.760 C 250.825 219.892,250.708 220.000,250.432 220.000 C 250.157 220.000,246.466 223.465,242.230 227.700 C 237.994 231.935,234.184 235.608,233.764 235.863 C 233.344 236.117,233.049 236.536,233.110 236.793 C 233.170 237.049,233.052 237.156,232.847 237.029 C 232.383 236.742,225.600 243.263,225.600 243.997 C 225.600 244.292,225.493 244.427,225.363 244.296 C 224.869 243.802,220.000 249.156,220.000 250.194 L 220.000 251.204 305.354 251.198 L 390.709 251.193 390.925 250.366 C 391.047 249.897,390.851 249.188,390.470 248.726 C 388.842 246.749,386.826 244.800,386.408 244.800 C 386.158 244.800,386.064 244.620,386.200 244.400 C 386.336 244.180,386.279 244.000,386.073 244.000 C 385.661 244.000,375.475 233.917,372.000 230.068 C 370.790 228.728,369.564 227.625,369.276 227.616 C 368.988 227.607,368.864 227.420,369.000 227.200 C 369.136 226.980,369.070 226.800,368.853 226.800 C 368.415 226.800,359.034 217.515,355.600 213.683 C 354.390 212.333,353.164 211.222,352.876 211.214 C 352.588 211.206,352.464 211.020,352.600 210.800 C 352.736 210.580,352.680 210.400,352.476 210.400 C 352.048 210.400,342.453 200.924,339.200 197.287 C 337.990 195.935,336.764 194.822,336.476 194.814 C 336.188 194.806,336.064 194.620,336.200 194.400 C 336.336 194.180,336.288 194.000,336.093 194.000 C 335.899 194.000,333.990 192.290,331.852 190.200 L 327.964 186.400 306.482 186.430 L 285.000 186.461 282.518 188.930 M48.778 199.500 L 47.400 201.000 48.900 199.622 C 50.296 198.338,50.584 198.000,50.278 198.000 C 50.212 198.000,49.537 198.675,48.778 199.500 M15.375 232.900 L 14.200 234.200 15.500 233.025 C 16.215 232.379,16.800 231.794,16.800 231.725 C 16.800 231.416,16.470 231.688,15.375 232.900 " stroke="none" fill="#1c1c1c" fill-rule="evenodd"></path><path id="path2" d="M187.000 149.200 C 186.864 149.420,186.808 149.614,186.876 149.631 C 188.193 149.957,188.417 149.903,187.973 149.368 C 187.413 148.693,187.323 148.677,187.000 149.200 M187.607 151.496 C 186.719 151.845,185.868 152.801,186.174 153.107 C 186.322 153.256,186.569 153.192,186.722 152.965 C 186.875 152.739,187.445 152.249,187.989 151.877 C 188.959 151.213,188.781 151.035,187.607 151.496 M184.394 154.676 C 184.389 155.298,184.327 155.316,183.956 154.800 C 183.590 154.291,183.558 154.305,183.746 154.889 C 183.877 155.299,183.689 155.741,183.283 155.977 C 182.908 156.196,182.794 156.381,183.030 156.388 C 183.745 156.408,185.314 154.518,184.830 154.219 C 184.584 154.067,184.397 154.263,184.394 154.676 M92.900 155.700 C 92.955 155.975,92.762 156.151,92.470 156.090 C 92.179 156.030,92.050 156.157,92.183 156.373 C 92.496 156.879,93.475 156.504,93.757 155.769 C 93.884 155.436,93.731 155.200,93.387 155.200 C 93.064 155.200,92.845 155.425,92.900 155.700 M167.724 170.999 C 167.462 171.283,167.357 171.624,167.491 171.757 C 167.624 171.891,167.454 172.000,167.113 172.000 C 166.772 172.000,166.399 172.360,166.284 172.800 C 166.169 173.240,166.119 173.600,166.173 173.600 C 166.521 173.600,168.728 170.804,168.492 170.661 C 168.332 170.564,167.986 170.716,167.724 170.999 M76.500 172.100 C 76.555 172.375,76.362 172.551,76.070 172.490 C 75.779 172.430,75.650 172.557,75.783 172.773 C 76.096 173.279,77.075 172.904,77.357 172.169 C 77.484 171.836,77.331 171.600,76.987 171.600 C 76.664 171.600,76.445 171.825,76.500 172.100 M152.124 186.573 C 151.479 187.308,151.953 187.704,152.648 187.010 C 152.951 186.706,153.200 186.354,153.200 186.229 C 153.200 185.826,152.615 186.013,152.124 186.573 M151.000 188.000 C 151.136 188.220,150.937 188.400,150.557 188.400 C 150.177 188.400,149.975 188.509,150.108 188.641 C 150.240 188.774,149.865 189.336,149.274 189.891 C 148.093 191.000,149.261 190.311,150.700 189.049 C 151.665 188.204,151.863 187.600,151.176 187.600 C 150.943 187.600,150.864 187.780,151.000 188.000 M136.460 202.268 C 135.719 203.069,136.209 203.448,136.984 202.673 C 137.326 202.331,137.470 201.968,137.303 201.867 C 137.136 201.767,136.757 201.947,136.460 202.268 M134.394 204.676 C 134.389 205.298,134.327 205.316,133.956 204.800 C 133.590 204.291,133.558 204.305,133.746 204.889 C 133.877 205.299,133.689 205.741,133.283 205.977 C 132.908 206.196,132.794 206.381,133.030 206.388 C 133.745 206.408,135.314 204.518,134.830 204.219 C 134.584 204.067,134.397 204.263,134.394 204.676 M42.900 205.700 C 42.955 205.975,42.762 206.151,42.470 206.090 C 42.179 206.030,42.050 206.157,42.183 206.373 C 42.496 206.879,43.475 206.504,43.757 205.769 C 43.884 205.436,43.731 205.200,43.387 205.200 C 43.064 205.200,42.845 205.425,42.900 205.700 M117.724 220.999 C 117.462 221.283,117.357 221.624,117.491 221.757 C 117.624 221.891,117.454 222.000,117.113 222.000 C 116.772 222.000,116.399 222.360,116.284 222.800 C 116.169 223.240,116.119 223.600,116.173 223.600 C 116.521 223.600,118.728 220.804,118.492 220.661 C 118.332 220.564,117.986 220.716,117.724 220.999 M27.362 221.138 C 27.531 221.412,27.393 221.600,27.024 221.600 C 26.681 221.600,26.445 221.825,26.500 222.100 C 26.555 222.375,26.362 222.551,26.070 222.490 C 25.779 222.430,25.650 222.557,25.783 222.773 C 26.112 223.306,26.914 222.950,27.500 222.011 C 27.858 221.439,27.865 221.164,27.530 220.957 C 27.252 220.785,27.187 220.855,27.362 221.138 M102.124 236.573 C 101.479 237.308,101.953 237.704,102.648 237.010 C 102.951 236.706,103.200 236.354,103.200 236.229 C 103.200 235.826,102.615 236.013,102.124 236.573 M101.000 238.000 C 101.136 238.220,100.937 238.400,100.557 238.400 C 100.177 238.400,99.975 238.509,100.108 238.641 C 100.240 238.774,99.865 239.336,99.274 239.891 C 98.093 241.000,99.261 240.311,100.700 239.049 C 101.665 238.204,101.863 237.600,101.176 237.600 C 100.943 237.600,100.864 237.780,101.000 238.000 M2.267 253.067 C 2.141 253.192,2.308 253.565,2.638 253.895 C 2.968 254.225,3.341 254.392,3.467 254.267 C 3.592 254.141,3.425 253.768,3.095 253.438 C 2.765 253.108,2.392 252.941,2.267 253.067 M92.624 253.387 C 93.642 254.158,94.224 254.167,93.457 253.400 C 93.127 253.070,92.630 252.800,92.352 252.800 C 92.069 252.800,92.188 253.058,92.624 253.387 M99.156 259.900 C 99.416 260.395,99.922 260.800,100.281 260.800 C 100.640 260.800,100.858 260.753,100.767 260.696 C 100.675 260.638,100.169 260.233,99.642 259.796 L 98.684 259.000 99.156 259.900 M31.842 282.633 C 32.479 283.202,33.421 284.147,33.936 284.733 C 34.646 285.544,34.770 285.597,34.451 284.955 C 34.032 284.113,31.393 281.600,30.928 281.600 C 30.793 281.600,31.204 282.065,31.842 282.633 M35.849 286.720 C 35.741 286.896,36.011 287.264,36.450 287.538 C 37.181 287.995,37.211 287.968,36.810 287.218 C 36.332 286.326,36.151 286.232,35.849 286.720 M127.855 288.600 C 127.982 288.930,128.349 289.200,128.671 289.200 C 129.179 289.200,129.178 289.120,128.657 288.600 C 128.327 288.270,127.960 288.000,127.841 288.000 C 127.722 288.000,127.729 288.270,127.855 288.600 M142.624 303.387 C 143.642 304.158,144.224 304.167,143.457 303.400 C 143.127 303.070,142.630 302.800,142.352 302.800 C 142.069 302.800,142.188 303.058,142.624 303.387 M149.156 309.900 C 149.416 310.395,149.922 310.800,150.281 310.800 C 150.640 310.800,150.858 310.753,150.767 310.696 C 150.675 310.638,150.169 310.233,149.642 309.796 L 148.684 309.000 149.156 309.900 M60.812 311.798 C 61.750 313.072,62.400 313.686,62.400 313.298 C 62.400 313.101,61.910 312.503,61.312 311.970 C 60.514 311.258,60.381 311.213,60.812 311.798 M177.855 338.600 C 177.982 338.930,178.349 339.200,178.671 339.200 C 179.179 339.200,179.178 339.120,178.657 338.600 C 178.327 338.270,177.960 338.000,177.841 338.000 C 177.722 338.000,177.729 338.270,177.855 338.600 M122.269 350.300 C 133.967 350.359,153.227 350.359,165.069 350.300 C 176.911 350.241,167.340 350.193,143.800 350.193 C 120.260 350.193,110.571 350.241,122.269 350.300 " stroke="none" fill="#5cac5c" fill-rule="evenodd"></path><path id="path3" d="" stroke="none" fill="#3c443c" fill-rule="evenodd"></path><path id="path4" d="" stroke="none" fill="#401c3c" fill-rule="evenodd"></path></g></svg>