<?xml version="1.0" encoding="UTF-8"?>
<svg version="1.1" xmlns="http://www.w3.org/2000/svg" width="1000" height="750">
<path d="M0 0 C1.8410914 0.15693172 1.8410914 0.15693172 3.71937656 0.31703377 C34.97661158 3.02947107 65.60598193 7.91316016 96.0625 15.4375 C94.57847604 18.88160615 92.63432945 21.11446711 89.99014854 23.75594711 C89.13273453 24.61734322 88.27532052 25.47873933 87.39192426 26.36623836 C86.43498636 27.3174703 85.47795611 28.26860936 84.52084351 29.21966553 C83.50811397 30.23326705 82.49582399 31.24730791 81.48393691 32.26175046 C78.69955432 35.05061173 75.9089627 37.83318731 73.11733627 40.61479497 C70.10895863 43.61454795 67.10635035 46.62006586 64.1030426 49.62489319 C58.89797346 54.83101181 53.68925053 60.0334516 48.47803879 65.23342133 C40.94347726 72.75173929 33.41443445 80.27556383 25.88673373 87.8007504 C13.67383985 100.00926538 1.4564849 112.21330594 -10.76367188 124.41455078 C-22.63547862 136.26800377 -34.50518616 148.12355234 -46.37207031 159.98193359 C-47.10335878 160.71269662 -47.83464725 161.44345964 -48.58809598 162.196367 C-52.25668654 165.86234752 -55.92523581 169.52836936 -59.59376454 173.19441175 C-90.03527573 203.61518438 -120.48402578 234.02870359 -150.9375 264.4375 C-149.45386014 267.88140964 -147.51099392 270.11107583 -144.86514854 272.75036049 C-144.00773453 273.6105232 -143.15032052 274.47068591 -142.26692426 275.35691416 C-141.30998438 276.30676623 -140.3529542 277.25652733 -139.39584351 278.20620728 C-138.383111 279.21837984 -137.3708211 280.23099542 -136.35893691 281.24401605 C-133.57453846 284.02900636 -130.78394588 286.80771749 -127.99233627 289.58547688 C-124.98393261 292.58114723 -121.98131816 295.58260992 -118.9780426 298.5834198 C-113.77283478 303.78285082 -108.56408758 308.97871412 -103.35303879 314.1722908 C-95.81770899 321.68253983 -88.28883775 329.19923689 -80.76173373 336.71772914 C-68.54843287 348.91689127 -56.33140347 361.11231163 -44.11132812 373.3046875 C-43.37975851 374.03460149 -42.64818889 374.76451548 -41.8944505 375.51654808 C-36.70056522 380.6986305 -31.5065472 385.88057987 -26.3125 391.0625 C-20.37588342 396.98525821 -14.43932914 402.90807885 -8.50292969 408.83105469 C-7.77164122 409.5606869 -7.04035275 410.29031912 -6.28690402 411.0420614 C5.88918458 423.1908155 18.06137483 435.34346817 30.23076665 447.49893034 C37.74315943 455.00234238 45.25910112 462.50216637 52.77959 469.99746405 C57.92736048 475.12843233 63.071635 480.26288753 68.21312524 485.40014888 C71.18367203 488.36799538 74.15588468 491.33412538 77.13244057 494.29594612 C79.85304551 497.00313308 82.56908921 499.71480774 85.28146355 502.43024032 C86.26752853 503.41575886 87.25531824 504.39955509 88.24492545 505.38151665 C89.5817968 506.70853066 90.91202535 508.04222713 92.24183083 509.37632179 C92.98499853 510.11764591 93.72816623 510.85897002 94.49385417 511.62275851 C96.0625 513.4375 96.0625 513.4375 96.0625 515.4375 C64.58592101 523.33679018 32.95180315 528.20645362 0.625 531 C-0.58736784 531.10787653 -1.79973569 531.21575306 -3.04884195 531.32689857 C-68.58621757 536.9917627 -119.19786336 526.16910748 -169.73300076 483.78520489 C-202.64056983 455.86995632 -232.79465923 424.88412945 -262.27364331 393.42903346 C-264.38058496 391.18154248 -266.49001381 388.93640956 -268.59996939 386.69174814 C-297.81302006 355.59662996 -326.46242641 324.00158912 -354.17189677 291.5561357 C-355.70525018 289.76224643 -357.24216467 287.97145949 -358.77959812 286.18106663 C-361.13858928 283.43035689 -363.48280395 280.66777743 -365.81466824 277.89403901 C-367.06352805 276.41313042 -368.32379796 274.94186767 -369.58437014 273.47091597 C-370.31286747 272.59559118 -371.04136481 271.72026638 -371.79193783 270.8184166 C-372.42838032 270.06353258 -373.06482281 269.30864856 -373.72055143 268.53088927 C-374.9375 266.4375 -374.9375 266.4375 -374.8439495 264.43554783 C-373.72317475 261.96507203 -372.32713949 260.16768131 -370.57987022 258.08781815 C-369.85497408 257.2194601 -369.13007794 256.35110206 -368.38321525 255.45643014 C-367.57720679 254.50701242 -366.77119834 253.55759469 -365.94076538 252.57940674 C-365.07998513 251.55733457 -364.21951033 250.53500508 -363.3593151 249.5124405 C-360.4822067 246.10035841 -357.5865886 242.70423166 -354.68896484 239.30957031 C-354.18482722 238.71801975 -353.6806896 238.12646919 -353.16127507 237.51699285 C-325.07253592 204.56489863 -296.019749 172.49675315 -266.40160781 140.91585046 C-264.31809707 138.69347012 -262.23687986 136.46895916 -260.15587378 134.24423361 C-133.64084845 -0.87718015 -133.64084845 -0.87718015 0 0 Z " fill="#57AD5C" transform="translate(374.9375,234.5625)"/>
<path d="M0 0 C-1.36605805 3.01614744 -2.93433144 5.24423094 -5.17216462 7.6771605 C-5.83049592 8.39712461 -6.48882723 9.11708871 -7.16710797 9.85886991 C-7.89386529 10.64411719 -8.62062261 11.42936448 -9.36940289 12.23840714 C-10.1423339 13.08045586 -10.91526492 13.92250458 -11.7116181 14.79006994 C-13.86791368 17.13642039 -16.02849906 19.47872081 -18.19147555 21.81891151 C-19.58309849 23.32528333 -20.97322083 24.83302544 -22.36286322 26.3412244 C-29.08235961 33.63367031 -35.81604983 40.91289749 -42.55465029 48.18768936 C-44.22149269 49.98752222 -45.88777714 51.78786996 -47.55389178 53.58837652 C-76.33833584 84.69254502 -105.31610917 115.60535586 -134.60554504 146.23480225 C-135.27383922 146.93373424 -135.9421334 147.63266623 -136.63067892 148.35277798 C-151.17381751 163.56064186 -165.7433999 178.7429092 -180.34227241 193.8972757 C-187.50457991 201.33230103 -194.66135564 208.77263832 -201.81518555 216.21582031 C-202.88276095 217.32628596 -202.88276095 217.32628596 -203.97190353 218.45918525 C-225.3787833 240.73107898 -246.45646936 263.27663506 -267.31676174 286.06065082 C-299.49122763 321.19229571 -332.12752361 355.82959329 -365.74681763 389.5859842 C-367.11155531 390.95638431 -368.4756974 392.3273778 -369.83924481 393.69896224 C-485.37922869 509.90831146 -485.37922869 509.90831146 -591.78605401 516.86915079 C-635.35279775 516.92885189 -678.81346021 510.61112046 -721 500 C-716.5108384 494.7001088 -711.88821997 489.54725937 -707.1824646 484.43930149 C-706.40968373 483.59885635 -705.63690286 482.75841122 -704.84070438 481.89249805 C-702.24762522 479.07403886 -699.65222564 476.25773333 -697.05615234 473.44203186 C-696.37355344 472.70153973 -696.37355344 472.70153973 -695.67716466 471.94608816 C-687.98868699 463.60592581 -680.28958608 455.27561206 -672.5859375 446.94946289 C-672.04071578 446.36009243 -671.49549407 445.77072197 -670.93375048 445.1634918 C-641.7981061 413.67053737 -612.48543536 382.35395109 -582.83666992 351.34312439 C-582.17276473 350.64864498 -581.50885953 349.95416558 -580.824836 349.23864134 C-566.3824707 334.1330035 -551.91418925 319.05243482 -537.41833943 303.99811888 C-530.31079143 296.61648385 -523.20884612 289.22947153 -516.10986328 281.83959961 C-515.40363166 281.10462237 -514.69740004 280.36964512 -513.96976747 279.61239584 C-492.7210847 257.49388093 -471.79922619 235.10364664 -451.09201187 212.47803911 C-419.14200276 177.57799845 -386.73181271 143.17044442 -353.3442229 109.63833403 C-351.98913449 108.27727302 -350.63464265 106.9156178 -349.28074658 105.55337072 C-289.32707249 45.23550094 -232.87146045 -10.73868627 0 0 Z " fill="#EAE7DF" transform="translate(1000,0)"/>
<path d="M0 0 C140.25 0 280.5 0 425 0 C422.9878925 4.02421499 420.5758406 7.00165786 417.62634277 10.32745361 C417.07055684 10.95973838 416.5147709 11.59202314 415.94214296 12.24346805 C414.07315722 14.36428301 412.1964279 16.47804593 410.31835938 18.59082031 C409.33266653 19.7032995 409.33266653 19.7032995 408.3270607 20.83825302 C395.1797679 35.66142038 381.69698636 50.16418223 368.09050751 64.56584549 C359.45747908 73.71708911 350.94790871 82.93807035 342.68261719 92.42382812 C283.93423819 159.66246369 283.93423819 159.66246369 240.55078125 163.18164062 C230.86386374 163.81564535 221.22981038 163.80487032 211.53125 163.484375 C210.35490683 163.44620698 209.17856365 163.40803896 207.96657372 163.36871433 C200.0936046 163.07235363 192.2657278 162.52619608 184.42382812 161.77246094 C183.41216646 161.68157479 182.4005048 161.59068865 181.35818672 161.49704838 C167.75055528 160.15572809 159.99845896 157.53195759 151 147 C149.47537928 145.47246767 147.941018 143.95449267 146.390625 142.453125 C145.00770824 141.05475666 143.62743309 139.65377024 142.25 138.25 C138.29879846 134.22494422 134.35959263 130.25404641 130.078125 126.578125 C124.428533 121.71465947 119.29186021 116.33667337 114.06640625 111.02734375 C110.47063773 107.39660828 106.87853044 103.82942643 103 100.5 C97.37187243 95.66867614 92.26563402 90.31002622 87.06640625 85.02734375 C83.47063773 81.39660828 79.87853044 77.82942643 76 74.5 C70.37187243 69.66867614 65.26563402 64.31002622 60.06640625 59.02734375 C56.47063773 55.39660828 52.87853044 51.82942643 49 48.5 C43.37187243 43.66867614 38.26563402 38.31002622 33.06640625 33.02734375 C28.85603959 28.77603349 24.58353575 24.71051815 20.04492188 20.81347656 C16.03225254 17.25496322 12.28182876 13.42530675 8.5 9.625 C7.67757813 8.80644531 6.85515625 7.98789063 6.0078125 7.14453125 C5.23179687 6.36722656 4.45578125 5.58992187 3.65625 4.7890625 C2.95306641 4.08475098 2.24988281 3.38043945 1.52539062 2.65478516 C0 1 0 1 0 0 Z " fill="#EAE7DF" transform="translate(301,0)"/>
<path d="M0 0 C0.91014715 -0.12378743 1.82029429 -0.24757486 2.75802165 -0.37511343 C40.97877375 -5.30129361 86.23786071 -10.43899093 118.64415908 14.13257098 C139.5986987 30.79622595 157.60050846 50.98607251 175.14048779 71.11396754 C183.56509478 80.75652288 192.32410081 90.07010791 201.11284006 99.37986553 C214.73087605 113.8180683 228.16719457 128.4038758 241.33171082 143.25706482 C241.98899925 143.99760731 242.64628769 144.7381498 243.32349396 145.50113297 C245.13664796 147.54690572 246.94541308 149.59642947 248.75167847 151.64828491 C249.28567959 152.25236 249.81968071 152.8564351 250.36986369 153.4788155 C253.95402527 157.57330764 253.95402527 157.57330764 253.95402527 158.69090271 C113.70402527 158.69090271 -26.54597473 158.69090271 -171.04597473 158.69090271 C-164.28409842 150.80204702 -164.28409842 150.80204702 -161.46003723 147.97215271 C-160.52804504 147.03822693 -160.52804504 147.03822693 -159.57722473 146.08543396 C-158.94816223 145.46023865 -158.31909973 144.83504333 -157.67097473 144.19090271 C-157.04964661 143.5657074 -156.42831848 142.94051208 -155.78816223 142.29637146 C-152.6702718 139.18492295 -149.50506423 136.18610482 -146.16316223 133.31590271 C-141.37882237 129.18349743 -136.97825313 124.69432522 -132.54597473 120.19090271 C-127.53677004 115.10129345 -122.50574692 110.1608567 -117.08699036 105.50926208 C-113.06100579 101.92247583 -109.32675975 98.03237449 -105.54597473 94.19090271 C-100.53677004 89.10129345 -95.50574692 84.1608567 -90.08699036 79.50926208 C-86.06100579 75.92247583 -82.32675975 72.03237449 -78.54597473 68.19090271 C-69.59231983 59.09352943 -69.59231983 59.09352943 -65.07722473 55.22215271 C-60.13429808 50.97902225 -55.61491116 46.32906545 -51.04597473 41.69090271 C-45.86845563 36.43493635 -40.68418217 31.30723233 -35.08259583 26.50486755 C-30.99204358 22.86152026 -27.19994221 18.90550898 -23.35847473 15.00340271 C-21.71115491 13.33044367 -20.06148887 11.65979098 -18.40925598 9.99168396 C-17.69036194 9.26118835 -16.9714679 8.53069275 -16.23078918 7.77806091 C-15.50980042 7.08929871 -14.78881165 6.4005365 -14.04597473 5.69090271 C-13.36248616 5.02272994 -12.67899759 4.35455717 -11.97479725 3.66613674 C-8.06097626 1.02660759 -4.62324237 0.58676363 0 0 Z " fill="#EAE7DF" transform="translate(722.0459747314453,341.30909729003906)"/>
</svg>
